<?xml version="1.0" standalone="no"?>
<svg xmlns:xlink="http://www.w3.org/1999/xlink" id="wave" style="transform:rotate(0deg); transition: 0.3s" viewBox="0 0 1440 180" version="1.1" xmlns="http://www.w3.org/2000/svg"><defs><linearGradient id="sw-gradient-0" x1="0" x2="0" y1="1" y2="0"><stop stop-color="rgba(93, 97, 157, 1)" offset="0%"/><stop stop-color="rgba(93, 97, 157, 1)" offset="100%"/></linearGradient></defs><path style="transform:translate(0, 0px); opacity:1" fill="url(#sw-gradient-0)" d="M0,0L80,6C160,12,320,24,480,39C640,54,800,72,960,66C1120,60,1280,30,1440,36C1600,42,1760,84,1920,105C2080,126,2240,126,2400,105C2560,84,2720,42,2880,24C3040,6,3200,12,3360,12C3520,12,3680,6,3840,12C4000,18,4160,36,4320,48C4480,60,4640,66,4800,75C4960,84,5120,96,5280,102C5440,108,5600,108,5760,93C5920,78,6080,48,6240,33C6400,18,6560,18,6720,33C6880,48,7040,78,7200,87C7360,96,7520,84,7680,69C7840,54,8000,36,8160,48C8320,60,8480,102,8640,123C8800,144,8960,144,9120,138C9280,132,9440,120,9600,120C9760,120,9920,132,10080,126C10240,120,10400,96,10560,81C10720,66,10880,60,11040,51C11200,42,11360,30,11440,24L11520,18L11520,180L11440,180C11360,180,11200,180,11040,180C10880,180,10720,180,10560,180C10400,180,10240,180,10080,180C9920,180,9760,180,9600,180C9440,180,9280,180,9120,180C8960,180,8800,180,8640,180C8480,180,8320,180,8160,180C8000,180,7840,180,7680,180C7520,180,7360,180,7200,180C7040,180,6880,180,6720,180C6560,180,6400,180,6240,180C6080,180,5920,180,5760,180C5600,180,5440,180,5280,180C5120,180,4960,180,4800,180C4640,180,4480,180,4320,180C4160,180,4000,180,3840,180C3680,180,3520,180,3360,180C3200,180,3040,180,2880,180C2720,180,2560,180,2400,180C2240,180,2080,180,1920,180C1760,180,1600,180,1440,180C1280,180,1120,180,960,180C800,180,640,180,480,180C320,180,160,180,80,180L0,180Z"/></svg>